<?xml version="1.0" encoding="UTF-8"?>
<svg xmlns="http://www.w3.org/2000/svg" viewBox="0 0 800 1000" width="800" height="1000">
  <defs>
    <linearGradient id="g" x1="0" y1="0" x2="0" y2="1">
      <stop offset="0" stop-color="#f3efe4"/>
      <stop offset="1" stop-color="#e4ebe4"/>
    </linearGradient>
  </defs>
  <rect width="800" height="1000" fill="url(#g)"/>
  <path d="M0 205.4 Q 80.0 74.4 160.0 187.6 Q 240.0 90.6 320.0 172.9 Q 400.0 85.4 480.0 189.5 Q 560.0 101.1 640.0 204.1 Q 720.0 103.2 800.0 169.8 L800 1100 L0 1100 Z" fill="#d5e3d8" opacity="0.55"/><path d="M0 363.4 Q 80.0 172.5 160.0 330.3 Q 240.0 216.0 320.0 346.3 Q 400.0 246.1 480.0 359.5 Q 560.0 196.5 640.0 363.1 Q 720.0 215.5 800.0 339.1 L800 1100 L0 1100 Z" fill="#b7cbb8" opacity="0.65"/><path d="M0 542.3 Q 80.0 324.2 160.0 528.9 Q 240.0 387.2 320.0 491.3 Q 400.0 367.6 480.0 537.9 Q 560.0 369.3 640.0 486.8 Q 720.0 372.5 800.0 493.0 L800 1100 L0 1100 Z" fill="#8eaa93" opacity="0.75"/><path d="M0 773.2 Q 80.0 670.7 160.0 740.1 Q 240.0 667.2 320.0 754.9 Q 400.0 652.1 480.0 740.1 Q 560.0 640.3 640.0 767.9 Q 720.0 648.7 800.0 737.6 L800 1100 L0 1100 Z" fill="#6d8b74" opacity="0.85"/>
  <ellipse cx="547" cy="751" rx="251" ry="31" fill="#f7f3ea" opacity="0.51"/><ellipse cx="214" cy="742" rx="297" ry="50" fill="#f7f3ea" opacity="0.48"/><ellipse cx="166" cy="728" rx="288" ry="49" fill="#f7f3ea" opacity="0.42"/>
  <path d="M51.0758606903255 1100 L51.0758606903255 200" stroke="#7d917f" stroke-width="4" opacity="0.45"/>
      <path d="M51.0758606903255 320 q -36 -20 -60 -8" fill="none" stroke="#8aa48a" stroke-width="2" opacity="0.5"/><path d="M69.0758606903255 1100 L69.0758606903255 240" stroke="#7d917f" stroke-width="7" opacity="0.45"/>
      <path d="M69.0758606903255 350 q 40 -20 70 -8" fill="none" stroke="#8aa48a" stroke-width="2" opacity="0.5"/><path d="M85.0758606903255 1100 L85.0758606903255 280" stroke="#7d917f" stroke-width="4" opacity="0.45"/>
      <path d="M85.0758606903255 380 q -36 -20 -60 -8" fill="none" stroke="#8aa48a" stroke-width="2" opacity="0.5"/>
  
</svg>