<?xml version="1.0" encoding="UTF-8"?>
<svg xmlns="http://www.w3.org/2000/svg" viewBox="0 0 800 1000" width="800" height="1000">
  <defs>
    <linearGradient id="g" x1="0" y1="0" x2="0" y2="1">
      <stop offset="0" stop-color="#f3efe4"/>
      <stop offset="1" stop-color="#e4ebe4"/>
    </linearGradient>
  </defs>
  <rect width="800" height="1000" fill="url(#g)"/>
  <path d="M0 239.1 Q 80.0 129.0 160.0 203.3 Q 240.0 111.5 320.0 222.0 Q 400.0 138.4 480.0 237.2 Q 560.0 101.7 640.0 212.5 Q 720.0 125.8 800.0 238.2 L800 1100 L0 1100 Z" fill="#d5e3d8" opacity="0.55"/><path d="M0 363.8 Q 80.0 211.0 160.0 339.2 Q 240.0 245.7 320.0 342.1 Q 400.0 208.8 480.0 320.3 Q 560.0 201.8 640.0 363.1 Q 720.0 231.9 800.0 337.7 L800 1100 L0 1100 Z" fill="#b7cbb8" opacity="0.65"/><path d="M0 567.4 Q 80.0 407.1 160.0 527.2 Q 240.0 426.5 320.0 523.9 Q 400.0 390.7 480.0 526.7 Q 560.0 419.0 640.0 533.1 Q 720.0 383.5 800.0 531.7 L800 1100 L0 1100 Z" fill="#8eaa93" opacity="0.75"/><path d="M0 763.4 Q 80.0 649.1 160.0 738.6 Q 240.0 641.9 320.0 748.9 Q 400.0 613.5 480.0 758.4 Q 560.0 584.7 640.0 725.8 Q 720.0 636.4 800.0 738.6 L800 1100 L0 1100 Z" fill="#6d8b74" opacity="0.85"/>
  <ellipse cx="617" cy="673" rx="242" ry="48" fill="#f7f3ea" opacity="0.45"/><ellipse cx="530" cy="651" rx="173" ry="44" fill="#f7f3ea" opacity="0.37"/><ellipse cx="696" cy="663" rx="145" ry="29" fill="#f7f3ea" opacity="0.31"/>
  <ellipse cx="436.37156734243035" cy="649.3109751399606" rx="54" ry="16" fill="#c4b49a" opacity="0.45"/>
    <path d="M388.37156734243035 649.3109751399606 q 48 46 96 0" fill="#d9cbb4" opacity="0.7"/>
    <path d="M436.37156734243035 641.3109751399606 q 6 -28 2 -48" fill="none" stroke="#efe8dc" stroke-width="3" opacity="0.7"/>
  
</svg>