<?xml version="1.0" encoding="UTF-8"?>
<svg xmlns="http://www.w3.org/2000/svg" viewBox="0 0 800 1000" width="800" height="1000">
  <defs>
    <linearGradient id="g" x1="0" y1="0" x2="0" y2="1">
      <stop offset="0" stop-color="#f3efe4"/>
      <stop offset="1" stop-color="#e4ebe4"/>
    </linearGradient>
  </defs>
  <rect width="800" height="1000" fill="url(#g)"/>
  <path d="M0 216.8 Q 80.0 84.2 160.0 204.6 Q 240.0 95.1 320.0 186.9 Q 400.0 123.6 480.0 205.8 Q 560.0 68.6 640.0 179.4 Q 720.0 83.4 800.0 188.9 L800 1100 L0 1100 Z" fill="#d5e3d8" opacity="0.55"/><path d="M0 386.7 Q 80.0 240.0 160.0 369.2 Q 240.0 206.4 320.0 362.5 Q 400.0 211.4 480.0 353.4 Q 560.0 223.9 640.0 364.6 Q 720.0 189.9 800.0 369.9 L800 1100 L0 1100 Z" fill="#b7cbb8" opacity="0.65"/><path d="M0 559.6 Q 80.0 348.0 160.0 555.5 Q 240.0 411.3 320.0 545.6 Q 400.0 386.2 480.0 511.0 Q 560.0 360.3 640.0 544.4 Q 720.0 401.2 800.0 538.9 L800 1100 L0 1100 Z" fill="#8eaa93" opacity="0.75"/><path d="M0 751.9 Q 80.0 620.9 160.0 748.5 Q 240.0 578.7 320.0 707.6 Q 400.0 639.5 480.0 727.5 Q 560.0 625.5 640.0 732.3 Q 720.0 579.6 800.0 717.1 L800 1100 L0 1100 Z" fill="#6d8b74" opacity="0.85"/>
  <ellipse cx="542" cy="750" rx="215" ry="36" fill="#f7f3ea" opacity="0.28"/><ellipse cx="645" cy="556" rx="252" ry="44" fill="#f7f3ea" opacity="0.32"/><ellipse cx="367" cy="639" rx="175" ry="50" fill="#f7f3ea" opacity="0.42"/>
  <path d="M98.8787254691124 1100 L98.8787254691124 200" stroke="#7d917f" stroke-width="4" opacity="0.45"/>
      <path d="M98.8787254691124 320 q -36 -20 -60 -8" fill="none" stroke="#8aa48a" stroke-width="2" opacity="0.5"/><path d="M116.8787254691124 1100 L116.8787254691124 240" stroke="#7d917f" stroke-width="7" opacity="0.45"/>
      <path d="M116.8787254691124 350 q 40 -20 70 -8" fill="none" stroke="#8aa48a" stroke-width="2" opacity="0.5"/><path d="M132.8787254691124 1100 L132.8787254691124 280" stroke="#7d917f" stroke-width="4" opacity="0.45"/>
      <path d="M132.8787254691124 380 q -36 -20 -60 -8" fill="none" stroke="#8aa48a" stroke-width="2" opacity="0.5"/>
  
</svg>