<?xml version="1.0" encoding="UTF-8"?>
<svg xmlns="http://www.w3.org/2000/svg" viewBox="0 0 800 1000" width="800" height="1000">
  <defs>
    <linearGradient id="g" x1="0" y1="0" x2="0" y2="1">
      <stop offset="0" stop-color="#f7f2ea"/>
      <stop offset="1" stop-color="#e7ddd0"/>
    </linearGradient>
  </defs>
  <rect width="800" height="1000" fill="url(#g)"/>
  <path d="M0 214.0 Q 80.0 113.8 160.0 186.0 Q 240.0 116.8 320.0 176.3 Q 400.0 123.7 480.0 191.9 Q 560.0 75.5 640.0 209.7 Q 720.0 110.4 800.0 184.7 L800 1100 L0 1100 Z" fill="#d5e3d8" opacity="0.55"/><path d="M0 377.4 Q 80.0 212.0 160.0 343.9 Q 240.0 247.3 320.0 377.1 Q 400.0 241.6 480.0 340.7 Q 560.0 197.0 640.0 351.0 Q 720.0 196.8 800.0 363.0 L800 1100 L0 1100 Z" fill="#b7cbb8" opacity="0.65"/><path d="M0 542.5 Q 80.0 394.0 160.0 496.9 Q 240.0 353.7 320.0 525.1 Q 400.0 343.7 480.0 487.6 Q 560.0 330.9 640.0 517.3 Q 720.0 396.5 800.0 530.8 L800 1100 L0 1100 Z" fill="#8eaa93" opacity="0.75"/><path d="M0 777.2 Q 80.0 651.9 160.0 769.0 Q 240.0 645.8 320.0 734.0 Q 400.0 611.1 480.0 770.7 Q 560.0 658.3 640.0 741.7 Q 720.0 677.8 800.0 734.0 L800 1100 L0 1100 Z" fill="#6d8b74" opacity="0.85"/>
  <ellipse cx="538" cy="686" rx="170" ry="56" fill="#f7f3ea" opacity="0.40"/><ellipse cx="74" cy="600" rx="127" ry="57" fill="#f7f3ea" opacity="0.49"/><ellipse cx="774" cy="554" rx="281" ry="46" fill="#f7f3ea" opacity="0.44"/>
  <path d="M415.7294852193445 547.1543850377202 l70 -28 l70 28 v8 h-140 z" fill="#5e6f64" opacity="0.55"/>
    <path d="M433.7294852193445 555.1543850377202 v46 h104 v-46" fill="#6d7f73" opacity="0.4"/>
    <path d="M477.7294852193445 555.1543850377202 v46" stroke="#4e5e54" stroke-width="3" opacity="0.35"/>
  
</svg>