<?xml version="1.0" encoding="UTF-8"?>
<svg xmlns="http://www.w3.org/2000/svg" viewBox="0 0 800 1000" width="800" height="1000">
  <defs>
    <linearGradient id="g" x1="0" y1="0" x2="0" y2="1">
      <stop offset="0" stop-color="#f6f1e6"/>
      <stop offset="1" stop-color="#d5e0d8"/>
    </linearGradient>
  </defs>
  <rect width="800" height="1000" fill="url(#g)"/>
  <path d="M0 214.1 Q 80.0 118.8 160.0 199.3 Q 240.0 70.5 320.0 212.3 Q 400.0 82.7 480.0 205.2 Q 560.0 91.1 640.0 175.5 Q 720.0 126.4 800.0 185.1 L800 1100 L0 1100 Z" fill="#d5e3d8" opacity="0.55"/><path d="M0 389.3 Q 80.0 258.5 160.0 348.0 Q 240.0 194.2 320.0 363.6 Q 400.0 240.8 480.0 358.9 Q 560.0 227.7 640.0 342.0 Q 720.0 277.2 800.0 357.2 L800 1100 L0 1100 Z" fill="#b7cbb8" opacity="0.65"/><path d="M0 570.4 Q 80.0 426.7 160.0 566.0 Q 240.0 410.5 320.0 562.7 Q 400.0 439.2 480.0 562.0 Q 560.0 391.6 640.0 539.0 Q 720.0 397.5 800.0 552.1 L800 1100 L0 1100 Z" fill="#8eaa93" opacity="0.75"/><path d="M0 742.5 Q 80.0 565.5 160.0 705.3 Q 240.0 587.1 320.0 737.7 Q 400.0 629.0 480.0 735.9 Q 560.0 629.8 640.0 730.0 Q 720.0 608.2 800.0 712.8 L800 1100 L0 1100 Z" fill="#6d8b74" opacity="0.85"/>
  <ellipse cx="551" cy="717" rx="148" ry="49" fill="#f7f3ea" opacity="0.36"/><ellipse cx="88" cy="647" rx="226" ry="51" fill="#f7f3ea" opacity="0.44"/><ellipse cx="384" cy="521" rx="245" ry="46" fill="#f7f3ea" opacity="0.38"/>
  <path d="M241.8330686353147 169.2695209942758 q 18 -16 36 0 q 16 -18 34 2" fill="none" stroke="#5c6b62" stroke-width="2.4" stroke-linecap="round" opacity="0.7"/>
  
</svg>